<svg width="200" height="200" viewBox="0 0 200 200" xmlns="http://www.w3.org/2000/svg">
  <circle cx="100" cy="100" r="100" fill="#5865F2"/>
  <path d="M83.333 108.333C83.333 111.556 81.111 114.167 78.333 114.167C75.556 114.167 73.333 111.556 73.333 108.333C73.333 105.111 75.556 102.5 78.333 102.5C81.111 102.5 83.333 105.111 83.333 108.333ZM121.667 102.5C118.889 102.5 116.667 105.111 116.667 108.333C116.667 111.556 118.889 114.167 121.667 114.167C124.444 114.167 126.667 111.556 126.667 108.333C126.667 105.111 124.444 102.5 121.667 102.5Z" fill="white"/>
  <path d="M145.833 58.333C145.833 58.333 133.333 48.333 118.333 46.667L116.667 50C102.222 48.333 87.778 48.333 73.333 50L71.667 46.667C56.667 48.333 44.167 58.333 44.167 58.333C44.167 58.333 29.167 83.333 26.667 130C42.5 148.333 66.667 151.667 66.667 151.667L71.667 145C63.889 142.222 56.667 137.778 50.833 131.667C59.167 137.778 79.167 145 100 145C120.833 145 140.833 137.778 149.167 131.667C143.333 137.778 136.111 142.222 128.333 145L133.333 151.667C133.333 151.667 157.5 148.333 173.333 130C170.833 83.333 155.833 58.333 145.833 58.333ZM73.333 125C66.111 125 60.833 118.889 60.833 111.667C60.833 104.444 66.111 98.333 73.333 98.333C80.556 98.333 85.833 104.444 85.833 111.667C85.833 118.889 80.556 125 73.333 125ZM126.667 125C119.444 125 114.167 118.889 114.167 111.667C114.167 104.444 119.444 98.333 126.667 98.333C133.889 98.333 139.167 104.444 139.167 111.667C139.167 118.889 133.889 125 126.667 125Z" fill="white"/>
</svg>
